<?xml version="1.0" standalone="no"?>
<!DOCTYPE svg PUBLIC "-//W3C//DTD SVG 20010904//EN"
 "http://www.w3.org/TR/2001/REC-SVG-20010904/DTD/svg10.dtd">
<svg version="1.0" xmlns="http://www.w3.org/2000/svg"
 width="50.000000pt" height="50.000000pt" viewBox="0 0 50.000000 50.000000"
 preserveAspectRatio="xMidYMid meet">

<g transform="translate(0.000000,50.000000) scale(0.100000,-0.100000)"
fill="#000000" stroke="none">
<path d="M175 481 c-6 -6 -32 -11 -60 -13 l-50 -3 0 -220 0 -220 185 0 185 0
0 220 0 220 -50 3 c-27 2 -54 7 -59 13 -6 5 -40 9 -76 9 -36 0 -70 -4 -75 -9z
m135 -36 c0 -24 -3 -25 -60 -25 -57 0 -60 1 -60 25 0 24 3 25 60 25 57 0 60
-1 60 -25z m-140 -5 c0 -5 -13 -10 -30 -10 l-30 0 0 -180 0 -180 140 0 140 0
0 180 0 180 -30 0 c-16 0 -30 5 -30 10 0 6 20 10 45 10 l45 0 0 -205 0 -205
-170 0 -170 0 0 205 0 205 45 0 c25 0 45 -4 45 -10z m200 -192 l0 -158 -120 0
-120 0 0 158 0 157 120 0 120 0 0 -157z"/>
<path d="M225 340 c-4 -12 -1 -27 5 -35 10 -12 8 -19 -11 -35 l-24 -19 55 0
c53 0 54 0 35 17 -14 11 -21 29 -20 52 0 40 -29 55 -40 20z"/>
<path d="M170 200 c0 -6 33 -10 80 -10 47 0 80 4 80 10 0 6 -33 10 -80 10 -47
0 -80 -4 -80 -10z"/>
<path d="M170 150 c0 -6 28 -10 65 -10 37 0 65 4 65 10 0 6 -28 10 -65 10 -37
0 -65 -4 -65 -10z"/>
</g>
</svg>
